# xmcd CD database file generated by OrangeCD 4.2
#
# Track frame offsets:
#	150
#	11257
#	28110
#	44565
#	59250
#	75997
#	110765
#	127430
#	143417
#	165375
#	178567
#	197385
#
# Disc length: 2923 seconds
#
# Revision: 2
# Processed by: cddbd v1.4PL0 Copyright (c) Steve Scherf et al.
# Submitted via: OrangeCD 4.2
#
DISCID=970b690c
DTITLE=Rod Piazza - Harpburn
DYEAR=1993
DGENRE=Blues
TTITLE0=Little Bitty Pretty One - Rockin' Robin
TTITLE1=Bad Bad Boy
TTITLE2=One Mint Julep
TTITLE3=California Boogie
TTITLE4=The Upsetter
TTITLE5=Tribute to George Smith
TTITLE6=Harpburn
TTITLE7=Feeling Good
TTITLE8=Honey Bee (Buzz)
TTITLE9=Cold Chill
TTITLE10=Worried Life Blues
TTITLE11=I'm Dangerous
EXTD=
EXTT0=
EXTT1=
EXTT2=
EXTT3=
EXTT4=
EXTT5=
EXTT6=
EXTT7=
EXTT8=
EXTT9=
EXTT10=
EXTT11=
PLAYORDER=
